<!-- Basic SVG icon for PWA -->
<svg xmlns="http://www.w3.org/2000/svg" viewBox="0 0 24 24" width="24" height="24">
  <defs>
    <linearGradient id="iconGradient" x1="0%" y1="0%" x2="100%" y2="100%">
      <stop offset="0%" style="stop-color:#667eea;stop-opacity:1" />
      <stop offset="100%" style="stop-color:#764ba2;stop-opacity:1" />
    </linearGradient>
  </defs>
  <rect width="24" height="24" rx="4" fill="url(#iconGradient)"/>
  <path d="M12 2L2 7v10c0 1.1.9 2 2s2 .9 2 2 2-.9 2-2V7c0-1.1-.9-2-2-2H4c-1.1 0-2 .9-2 2v10c0 1.1.9 2 2s2 .9 2 2 2-.9 2-2V7c0-1.1-.9-2-2-2H4c-1.1 0-2 .9-2 2v10c0 1.1.9 2 2s2 .9 2 2 2-.9 2-2V7c0-1.1-.9-2-2-2H4c-1.1 0-2 .9-2 2v10c0 1.1.9 2 2s2 .9 2 2 2-.9 2-2V7c0-1.1-.9-2-2-2H4c-1.1 0-2 .9-2 2v10c0 1.1.9 2 2s2 .9 2 2 2-.9 2-2V7c0-1.1-.9-2-2-2H4c-1.1 0-2 .9-2 2v10c0 1.1.9 2 2s2 .9 2 2 2-.9 2-2V7c0-1.1-.9-2-2-2H4c-1.1 0-2 .9-2 2v10c0 1.1.9 2 2s2 .9 2 2 2-.9 2-2V7c0-1.1-.9-2-2-2H4c-1.1 0-2 .9-2 2v10c0 1.1.9 2 2s2 .9 2 2 2-.9 2-2V7c0-1.1-.9-2-2-2H4c-1.1 0-2 .9-2 2v10c0 1.1.9 2 2s2 .9 2 2 2-.9 2-2V7c0-1.1-.9-2-2-2H4c-1.1 0-2 .9-2 2v10c0 1.1.9 2 2s2 .9 2 2 2-.9 2-2V7c0-1.1-.9-2-2-2H4c-1.1 0-2 .9-2 2v10c0 1.1.9 2 2s2 .9 2 2 2-.9 2-2V7c0-1.1-.9-2-2-2H4c-1.1 0-2 .9-2 2v10c0 1.1.9 2 2s2 .9 2 2 2-.9 2-2V7c0-1.1-.9-2-2-2H4c-1.1 0-2 .9-2 2v10c0 1.1.9 2 2s2 .9 2 2 2-.9 2-2V7c0-1.1-.9-2-2-2H4c-1.1 0-2 .9-2 2v10c0 1.1.9 2 2s2 .9 2 2 2-.9 2-2V7c0-1.1-.9-2-2-2H4c-1.1 0-2 .9-2 2v10c0 1.1.9 2 2s2 .9 2 2 2-.9 2-2V7z" fill="white" opacity="0.8"/>
  <text x="12" y="14" font-family="Arial, sans-serif" font-size="8" font-weight="bold" text-anchor="middle" fill="white">SB</text>
</svg>
